# xmcd
#
# Track frame offsets: 
#        150
#        23570
#        46450
#        69960
#        102242
#        134290
#        163609
#        185157
#        215667
#        234820
#        261207
#        282127
#        297200
#
# Disc length: 4300 seconds
#
# Revision: 0
# Processed by: cddbd v1.5.2PL0 Copyright (c) Steve Scherf et al.
# Submitted via: ExactAudioCopyFreeDBPlugin 1.0
#
DISCID=b910ca0d
DTITLE=Various Artist - Good Time - VMP Euro Dance Compilation (Volum
DTITLE=e 1)
DYEAR=1996
DGENRE=Euro-House
TTITLE0=Echo Bass - Givin' It Up (Extended Mix)
TTITLE1=Julien - The Rhythm Of The Rain (Dance Mix) 
TTITLE2=NRG Faze - Tonight I Celebrate My Love (Lovers Mix) 
TTITLE3=Double You - Because I'm Loving You ('70 Mix) 
TTITLE4=Dezire - Holding Out For A Hero (Speeding Bullet Mix) 
TTITLE5=Royal T - Baby Don't Cha Leave Me This Way (Illusive Mix) 
TTITLE6=Mission - You're Not Alone (Special Mix) 
TTITLE7=NRG Faze - I Know Him So Well (Hot Tracks Mix) 
TTITLE8=Fa -U feat. Debbie McKenna - I Who Have Nothing (Mountain Mix)
TTITLE8=
TTITLE9=One Vision - Heaven For Everyone (Extended Mix) 
TTITLE10=Rastic - Boombastic (Power Mix) 
TTITLE11=Mission - Missing (Radio Edit) 
TTITLE12=Atlas - Do Me Right Now (12" Mirage) 
EXTD=
EXTT0=
EXTT1=
EXTT2=
EXTT3=
EXTT4=
EXTT5=
EXTT6=
EXTT7=
EXTT8=
EXTT9=
EXTT10=
EXTT11=
EXTT12=
PLAYORDER=
